<svg width="24" height="24" viewBox="0 0 24 24" fill="none" xmlns="http://www.w3.org/2000/svg">
<rect width="24" height="24" rx="4" fill="#F4F4FD"/>
<path d="M9 16.5V7.5H12.4681C13.1631 7.5 13.7754 7.60714 14.305 7.82143C14.8345 8.03571 15.2482 8.34643 15.5461 8.75357C15.8487 9.15643 16 9.64071 16 10.2064C16 10.785 15.8605 11.2736 15.5816 11.6721C15.3026 12.0707 14.8983 12.375 14.3688 12.585C13.8392 12.7907 13.1962 12.8936 12.4397 12.8936H10.3333V16.5H9ZM10.3333 11.8329H12.4823C13.1773 11.8329 13.7139 11.7 14.0922 11.4343C14.4752 11.1686 14.6667 10.7679 14.6667 10.2321C14.6667 9.70929 14.4704 9.30214 14.078 9.01071C13.6903 8.71929 13.1631 8.57357 12.4965 8.57357H10.3333V11.8329Z" fill="#6865FF"/>
</svg>
