<svg width="14" height="14" viewBox="0 0 14 14" fill="none" xmlns="http://www.w3.org/2000/svg">
<path d="M10.8825 6.1068C10.8454 6.07294 10.8012 6.04609 10.7526 6.02776C10.704 6.00943 10.652 6 10.5993 6C10.5467 6 10.4947 6.00943 10.4461 6.02776C10.3975 6.04609 10.3533 6.07294 10.3162 6.1068L6.9999 9.12182L3.6836 6.1068C3.6085 6.03854 3.50665 6.00019 3.40044 6.00019C3.29424 6.00019 3.19239 6.03854 3.11729 6.1068C3.04219 6.17506 3 6.26764 3 6.36417C3 6.4607 3.04219 6.55328 3.11729 6.62154L6.71674 9.8932C6.75389 9.92706 6.79802 9.95391 6.84661 9.97224C6.8952 9.99057 6.94729 10 6.9999 10C7.0525 10 7.10459 9.99057 7.15318 9.97224C7.20177 9.95391 7.2459 9.92706 7.28305 9.8932L10.8825 6.62154C10.9197 6.58777 10.9493 6.54766 10.9695 6.50349C10.9896 6.45933 11 6.41198 11 6.36417C11 6.31635 10.9896 6.26901 10.9695 6.22484C10.9493 6.18068 10.9197 6.14057 10.8825 6.1068Z" fill="black" stroke="black" stroke-width="0.2"/>
</svg>
