<svg width="18" height="18" viewBox="0 0 18 18" fill="none" xmlns="http://www.w3.org/2000/svg">
<path d="M13.8 6.66667L13.128 13.1984C13.0264 14.1886 12.976 14.6832 12.744 15.0573C12.5405 15.3866 12.2413 15.65 11.884 15.8141C11.4784 16 10.968 16 9.944 16H8.056C7.0328 16 6.5216 16 6.116 15.8133C5.75844 15.6493 5.45889 15.386 5.2552 15.0566C5.0248 14.6832 4.9736 14.1886 4.8712 13.1984L4.2 6.66667M10.2 11.7222V7.83333M7.8 11.7222V7.83333M3 4.72222H6.692M6.692 4.72222L7.0008 2.644C7.0904 2.266 7.4136 2 7.7848 2H10.2152C10.5864 2 10.9088 2.266 10.9992 2.644L11.308 4.72222M6.692 4.72222H11.308M11.308 4.72222H15" stroke="#FF5A5A" stroke-linecap="round" stroke-linejoin="round"/>
</svg>
